<svg xmlns="http://www.w3.org/2000/svg" xmlns:xlink="http://www.w3.org/1999/xlink" width="100" height="100" viewBox="0 0 100 100"><g><g transform="translate(50 50) scale(0.69 0.69) rotate(0) translate(-50 -50)" style="fill:#FFFFFF"><svg fill="#FFFFFF" xmlns="http://www.w3.org/2000/svg" xmlns:xlink="http://www.w3.org/1999/xlink" version="1.1" x="0px" y="0px" viewBox="0 0 100 100" enable-background="new 0 0 100 100" xml:space="preserve"><g><path d="M37.4968262,44.230957c6.1503906,0,11.1538086-6.0161133,11.1538086-13.4106445   c0-7.1166992-4.690918-12.2817383-11.1538086-12.2817383s-11.1538086,5.1650391-11.1538086,12.2817383   C26.3430176,38.2148438,31.3464355,44.230957,37.4968262,44.230957z M37.4968262,20.5385742   c5.3041992,0,9.1538086,4.3242188,9.1538086,10.2817383c0,6.2919922-4.1064453,11.4106445-9.1538086,11.4106445   s-9.1538086-5.1186523-9.1538086-11.4106445C28.3430176,24.862793,32.192627,20.5385742,37.4968262,20.5385742z"></path><path d="M47.6506348,46H45v-2c0-0.5522461-0.4477539-1-1-1s-1,0.4477539-1,1v3c0,0.5522461,0.380127,1,0.932373,1h3.7182617   C52.8552246,48,57,51.8520508,57,56.769043V77c0,0.5522461,0.4477539,1,1,1s1-0.4477539,1-1V56.769043   C59,50.7304688,53.9768066,46,47.6506348,46z"></path><path d="M32,44c0-0.5522461-0.4477539-1-1-1s-1,0.4477539-1,1v2h-2.6569824C20.9445801,46,16,50.7304688,16,56.769043V77   c0,0.5522461,0.4477539,1,1,1s1-0.4477539,1-1V56.769043C18,51.8520508,22.0661621,48,27.3430176,48h3.5893555   C31.4846191,48,32,47.5522461,32,47V44z"></path><path d="M50,60c-0.5522461,0-1,0.4477539-1,1v14c0,0.5522461,0.4477539,1,1,1s1-0.4477539,1-1V61   C51,60.4477539,50.5522461,60,50,60z"></path><path d="M25,60c-0.5522461,0-1,0.4477539-1,1v14c0,0.5522461,0.4477539,1,1,1s1-0.4477539,1-1V61   C26,60.4477539,25.5522461,60,25,60z"></path><path d="M37,55v6c0,0.5522461,0.4477539,1,1,1s1-0.4477539,1-1v-6c0-0.5522461-0.4477539-1-1-1S37,54.4477539,37,55z"></path><path d="M43,6c0-0.5522847-0.4477158-1-1-1h-9c-0.5522842,0-1,0.4477153-1,1v9c0,0.5522852,0.4477158,1,1,1h9   c0.5522842,0,1-0.4477148,1-1V6z M34,7h7v7h-7V7z"></path><path d="M43,85c0-0.5522842-0.4477158-1-1-1h-9c-0.5522842,0-1,0.4477158-1,1v9c0,0.5522842,0.4477158,1,1,1h9   c0.5522842,0,1-0.4477158,1-1V85z M41,93h-7v-7h7V93z"></path><path d="M50.7453613,13.8535156c0.9091797,0.3330078,1.8188477,0.706543,2.7036133,1.1098633   c0.1347656,0.0615234,0.2758789,0.090332,0.4145508,0.090332c0.3793945,0,0.7426758-0.2172852,0.9101563-0.5849609   c0.2294922-0.5029297,0.0078125-1.0957031-0.4946289-1.324707c-0.9316406-0.4248047-1.8886719-0.8178711-2.8452148-1.168457   c-0.5200195-0.1904297-1.0932617,0.0766602-1.2832031,0.5947266   C49.9606934,13.0888672,50.2268066,13.6635742,50.7453613,13.8535156z"></path><path d="M73.1906738,35.5786133c0.1572266,0.3891602,0.5317383,0.6259766,0.9277344,0.6259766   c0.1245117,0,0.2509766-0.0234375,0.3740234-0.0732422c0.5117188-0.206543,0.7597656-0.7895508,0.5527344-1.3017578   c-0.3803711-0.9423828-0.8046875-1.8862305-1.2612305-2.8056641c-0.2446289-0.4936523-0.84375-0.6977539-1.340332-0.4506836   c-0.4946289,0.2456055-0.6962891,0.8457031-0.4506836,1.340332C72.4260254,33.7866211,72.8293457,34.6831055,73.1906738,35.5786133   z"></path><path d="M56.3425293,83.5654297c-0.8442383,0.4746094-1.71875,0.9238281-2.5991211,1.3349609   c-0.5004883,0.2338867-0.7167969,0.8291016-0.4833984,1.3291016c0.1699219,0.3637695,0.5302734,0.5771484,0.9067383,0.5771484   c0.1416016,0,0.2856445-0.0297852,0.4223633-0.09375c0.9262695-0.4326172,1.8457031-0.9047852,2.7338867-1.4042969   c0.4814453-0.2705078,0.6523438-0.8803711,0.3813477-1.3618164C57.4338379,83.465332,56.822998,83.2939453,56.3425293,83.5654297z"></path><path d="M75.5300293,60.703125c-0.5283203-0.1630859-1.0869141,0.1328125-1.2504883,0.6606445   c-0.2875977,0.9321289-0.6137695,1.8603516-0.96875,2.7583008c-0.2026367,0.5136719,0.0488281,1.0947266,0.5625,1.2978516   c0.1206055,0.0473633,0.2451172,0.0703125,0.3671875,0.0703125c0.3984375,0,0.7753906-0.2397461,0.9306641-0.6328125   c0.3735352-0.9458008,0.7167969-1.9228516,1.0195313-2.9038086C76.3537598,61.4257813,76.0578613,60.8662109,75.5300293,60.703125z   "></path><path d="M66.0168457,23.6899414c0.2490234,0,0.4980469-0.0922852,0.6918945-0.277832   c0.3989258-0.3823242,0.4121094-1.0151367,0.0302734-1.4140625c-0.706543-0.7373047-1.449707-1.456543-2.2089844-2.1381836   c-0.4116211-0.3696289-1.0444336-0.3354492-1.4121094,0.0761719c-0.3691406,0.4111328-0.3349609,1.043457,0.0761719,1.4121094   c0.722168,0.6484375,1.4291992,1.3325195,2.1005859,2.0336914C65.4909668,23.5869141,65.7536621,23.6899414,66.0168457,23.6899414z   "></path><path d="M67.4387207,74.1835938c-0.6079102,0.7524414-1.2548828,1.4931641-1.9228516,2.2026367   c-0.378418,0.4018555-0.359375,1.0351563,0.0424805,1.4135742c0.1933594,0.1816406,0.4394531,0.2719727,0.6855469,0.2719727   c0.265625,0,0.53125-0.1054688,0.7280273-0.3144531c0.7021484-0.7456055,1.3828125-1.5249023,2.0224609-2.315918   c0.347168-0.4296875,0.2802734-1.059082-0.1489258-1.4067383C68.4162598,73.6879883,67.7868652,73.7553711,67.4387207,74.1835938z"></path><path d="M76.8625488,42.6733398c-3.9726563,0-7.2050781,3.2324219-7.2050781,7.2050781s3.2324219,7.2050781,7.2050781,7.2050781   s7.2050781-3.2324219,7.2050781-7.2050781S80.8352051,42.6733398,76.8625488,42.6733398z M76.8625488,55.0834961   c-2.8701172,0-5.2050781-2.3349609-5.2050781-5.2050781s2.3349609-5.2050781,5.2050781-5.2050781   s5.2050781,2.3349609,5.2050781,5.2050781S79.732666,55.0834961,76.8625488,55.0834961z"></path></g></svg></g></g></svg>