<svg xmlns="http://www.w3.org/2000/svg" xmlns:xlink="http://www.w3.org/1999/xlink" width="100" height="100" viewBox="0 0 100 100"><g><g transform="translate(50 50) scale(0.69 0.69) rotate(0) translate(-50 -50)" style="fill:#FFFFFF"><svg fill="#FFFFFF" xmlns="http://www.w3.org/2000/svg" xmlns:xlink="http://www.w3.org/1999/xlink" version="1.1" x="0px" y="0px" viewBox="0 0 100 100.016" enable-background="new 0 0 100 100.016" xml:space="preserve"><g><path fill="#FFFFFF" d="M10.827,92.082h28.712V63.369H10.827V92.082z M14.829,67.371h20.708V88.08H14.829V67.371z"></path><rect x="74.176" y="78.196" fill="#FFFFFF" width="2.168" height="2.168"></rect><path fill="#FFFFFF" d="M75.26,47.709c10.738,0,19.473-8.734,19.473-19.473S85.998,8.763,75.26,8.763s-19.475,8.735-19.475,19.474   S64.521,47.709,75.26,47.709z M65.4,40.151h19.719c-2.68,2.221-6.115,3.557-9.859,3.557S68.08,42.371,65.4,40.151z M67.348,36.149   V20.324h15.824v15.824H67.348z M90.73,28.237c0,3.744-1.336,7.18-3.557,9.858V18.377C89.395,21.057,90.73,24.492,90.73,28.237z    M85.119,16.323H65.4c2.68-2.221,6.115-3.557,9.859-3.557S82.439,14.102,85.119,16.323z M63.346,18.377v19.718   c-2.221-2.679-3.559-6.114-3.559-9.858S61.125,21.057,63.346,18.377z"></path><path fill="#FFFFFF" d="M36.749,19.5L25.183,7.934L13.616,19.5l0,0L4.88,28.237l20.303,20.303l20.302-20.303L36.749,19.5   L36.749,19.5z M31.088,19.5l-5.906,5.906L19.276,19.5l5.906-5.906L31.088,19.5z M16.446,22.33l6.735,6.734v11.813L10.54,28.237   L16.446,22.33z M39.825,28.237L27.184,40.878V29.065l6.735-6.734L39.825,28.237z"></path><path fill="#FFFFFF" d="M15.25,85.326h19.864l-9.932-17.203L15.25,85.326z M22.183,81.324l3-5.195l3,5.195H22.183z"></path><path fill="#FFFFFF" d="M75.26,57.358l-19.861,34.4h39.723L75.26,57.358z M75.26,65.364l12.928,22.391H62.332L75.26,65.364z"></path></g></svg></g></g></svg>