<svg xmlns="http://www.w3.org/2000/svg" xmlns:xlink="http://www.w3.org/1999/xlink" width="100" height="100" viewBox="0 0 100 100"><g><g transform="translate(50 50) scale(0.69 0.69) rotate(0) translate(-50 -50)" style="fill:#FFFFFF"><svg fill="#FFFFFF" xmlns="http://www.w3.org/2000/svg" viewBox="0 0 64 64" x="0px" y="0px"><g><rect x="10" y="48" width="6" height="6"></rect><path d="M33.414,33.828a1,1,0,0,1,0-1.414,2,2,0,1,0-2.828,0,1,1,0,0,1,0,1.414l-.643.643A12.461,12.461,0,0,0,27,39.166v.066a7.975,7.975,0,0,0,4.253,1.73c.247.021.5.038.747.038s.5-.017.747-.038A7.975,7.975,0,0,0,37,39.232v-.066a12.461,12.461,0,0,0-2.943-4.695Z"></path><path d="M32,23a8.985,8.985,0,0,0-6.68,15.01,14.453,14.453,0,0,1,3.209-4.953l.024-.025a4,4,0,1,1,6.894,0l.024.025A14.453,14.453,0,0,1,38.68,38.01,8.985,8.985,0,0,0,32,23Z"></path><circle cx="13" cy="13" r="3"></circle><path d="M22,13a9.023,9.023,0,1,0-3.389,7.025l2.057,2.057,1.414-1.414-2.057-2.057A8.948,8.948,0,0,0,22,13Zm-9,5a5,5,0,1,1,5-5A5.006,5.006,0,0,1,13,18Z"></path><polygon points="48 49.5 48 52.5 51 54.75 54 52.5 54 49.5 51 47.25 48 49.5"></polygon><path d="M51,42a8.948,8.948,0,0,0-5.611,1.975l-3.057-3.057-1.414,1.414,3.057,3.057A8.992,8.992,0,1,0,51,42Zm5,11a1,1,0,0,1-.4.8l-4,3a1,1,0,0,1-1.2,0l-4-3A1,1,0,0,1,46,53V49a1,1,0,0,1,.4-.8l4-3a1,1,0,0,1,1.2,0l4,3a1,1,0,0,1,.4.8Z"></path><rect x="10" y="27" width="2" height="2"></rect><rect x="10" y="31" width="2" height="2"></rect><rect x="10" y="35" width="2" height="2"></rect><rect x="55" y="27" width="2" height="2"></rect><rect x="55" y="31" width="2" height="2"></rect><rect x="55" y="35" width="2" height="2"></rect><rect x="27" y="7" width="2" height="2"></rect><rect x="31" y="7" width="2" height="2"></rect><rect x="35" y="7" width="2" height="2"></rect><rect x="27" y="55" width="2" height="2"></rect><rect x="31" y="55" width="2" height="2"></rect><rect x="35" y="55" width="2" height="2"></rect><polygon points="51 11.016 48.723 15 53.277 15 51 11.016"></polygon><path d="M43.677,18.712l-.466,3.006,3.243-.7A1.052,1.052,0,0,1,46.663,21a.99.99,0,0,1,.435.1A8.918,8.918,0,0,0,51,22a9,9,0,1,0-7.481-4A1,1,0,0,1,43.677,18.712ZM46.132,15.5l4-7a1.04,1.04,0,0,1,1.736,0l4,7A1,1,0,0,1,55,17H47a1,1,0,0,1-.868-1.5Z"></path><path d="M20.668,40.918l-2.629,2.629a9.118,9.118,0,1,0,1.519,1.309l2.524-2.524ZM18,55a1,1,0,0,1-1,1H9a1,1,0,0,1-1-1V47a1,1,0,0,1,1-1h8a1,1,0,0,1,1,1Z"></path></g></svg></g></g></svg>