<svg id="Capa_1" data-name="Capa 1" xmlns="http://www.w3.org/2000/svg" viewBox="0 0 786.94 142.65"><defs><style>.cls-1{fill:#ffa400;}.cls-2{fill:#fff;}.cls-3{fill:none;stroke:#fff;stroke-linejoin:round;stroke-width:0.81px;}</style></defs><title>indumet_aero</title><path class="cls-1" d="M323,330.68h16.43a4.1,4.1,0,0,1,4.11,4.1v20.53h-2.78v-9H321.69v9h-2.77V334.78a4.08,4.08,0,0,1,4.1-4.1m-1.33,12.86h19.09v-8.76a1.31,1.31,0,0,0-.39-.94,1.29,1.29,0,0,0-.94-.39H323a1.33,1.33,0,0,0-1.33,1.33Z" transform="translate(-111.75 -212.66)"/><polygon class="cls-1" points="271.94 118.02 271.94 120.79 252.23 120.79 252.23 128.93 268.07 128.93 268.07 131.74 252.23 131.74 252.23 139.88 271.94 139.88 271.94 142.65 249.46 142.65 249.46 118.02 271.94 118.02"/><path class="cls-1" d="M425.64,334.82V342a4.08,4.08,0,0,1-4.11,4.1h-3.76l7.73,9.17h-3.66l-7.7-9.17h-9a12.61,12.61,0,0,1-1.33-.13v9.3H401v-24.6h20.53a4.1,4.1,0,0,1,4.11,4.11m-20.53,8.52h16.42a1.27,1.27,0,0,0,.93-.38,1.25,1.25,0,0,0,.37-.92v-7.22a1.3,1.3,0,0,0-.37-.94,1.21,1.21,0,0,0-.93-.4H405.11a1.25,1.25,0,0,0-.94.4,1.28,1.28,0,0,0-.39.94V342a1.23,1.23,0,0,0,.39.92,1.31,1.31,0,0,0,.94.38" transform="translate(-111.75 -212.66)"/><path class="cls-1" d="M447,330.68h16.42a4.1,4.1,0,0,1,4.11,4.1v16.43a4.08,4.08,0,0,1-4.11,4.1H447a4.08,4.08,0,0,1-4.11-4.1V334.78a4.1,4.1,0,0,1,4.11-4.1m0,21.86h16.42a1.31,1.31,0,0,0,.95-.39,1.29,1.29,0,0,0,.39-.94V334.78a1.33,1.33,0,0,0-1.34-1.33H447a1.29,1.29,0,0,0-.94.39,1.31,1.31,0,0,0-.39.94v16.43a1.33,1.33,0,0,0,1.33,1.33" transform="translate(-111.75 -212.66)"/><path class="cls-1" d="M509.43,334.78v1h-2.77v-1a1.31,1.31,0,0,0-.39-.94,1.29,1.29,0,0,0-.94-.39H488.9a1.29,1.29,0,0,0-.94.39,1.31,1.31,0,0,0-.39.94v5.51a1.25,1.25,0,0,0,.39.93,1.31,1.31,0,0,0,.94.37h16.43a4.08,4.08,0,0,1,4.1,4.11v5.51a4.06,4.06,0,0,1-4.1,4.1H488.9a4.08,4.08,0,0,1-4.1-4.1v-1h2.77v1a1.33,1.33,0,0,0,1.33,1.33h16.43a1.33,1.33,0,0,0,1.33-1.33V345.7a1.24,1.24,0,0,0-.39-.93,1.31,1.31,0,0,0-.94-.37H488.9a4.1,4.1,0,0,1-4.1-4.11v-5.51a4.1,4.1,0,0,1,4.1-4.1h16.43a4,4,0,0,1,2.91,1.2,3.92,3.92,0,0,1,1.19,2.9" transform="translate(-111.75 -212.66)"/><path class="cls-1" d="M526.78,330.71h20.53a4.1,4.1,0,0,1,4.11,4.11V342a4.08,4.08,0,0,1-4.11,4.1H530.89a13,13,0,0,1-1.34-.13v9.3h-2.77ZM548.64,342v-7.22a1.28,1.28,0,0,0-.39-.94,1.3,1.3,0,0,0-.94-.4H530.89a1.29,1.29,0,0,0-.94.4,1.25,1.25,0,0,0-.4.94V342a1.21,1.21,0,0,0,.4.92,1.31,1.31,0,0,0,.94.38h16.42a1.32,1.32,0,0,0,.94-.38,1.23,1.23,0,0,0,.39-.92" transform="translate(-111.75 -212.66)"/><path class="cls-1" d="M572.05,330.68h16.42a4.1,4.1,0,0,1,4.11,4.1v20.53h-2.77v-9h-19.1v9h-2.77V334.78a4.1,4.1,0,0,1,4.11-4.1m-1.34,12.86h19.1v-8.76a1.32,1.32,0,0,0-.4-.94,1.28,1.28,0,0,0-.94-.39H572.05a1.28,1.28,0,0,0-.94.39,1.32,1.32,0,0,0-.4.94Z" transform="translate(-111.75 -212.66)"/><path class="cls-1" d="M634.73,333.45H614.27a1.29,1.29,0,0,0-.94.39,1.31,1.31,0,0,0-.39,1v16.42a1.33,1.33,0,0,0,1.33,1.33h20.46v2.77H614.27a4.08,4.08,0,0,1-4.11-4.1V334.79a4.1,4.1,0,0,1,4.11-4.11h20.46Z" transform="translate(-111.75 -212.66)"/><polygon class="cls-1" points="562.78 118.02 562.78 120.79 543.07 120.79 543.07 128.93 558.91 128.93 558.91 131.74 543.07 131.74 543.07 139.88 562.78 139.88 562.78 142.65 540.3 142.65 540.3 118.02 562.78 118.02"/><path class="cls-2" d="M368.15,292.36H277.86a5.31,5.31,0,0,1-5.31-5.31V282h95.6a7.78,7.78,0,0,0,7.78-7.78v-43a7.78,7.78,0,0,0-7.78-7.78h-95.6v-5.07a5.31,5.31,0,0,1,5.31-5.31h90.29a18.16,18.16,0,0,1,18.15,18.16v43a18.16,18.16,0,0,1-18.15,18.16" transform="translate(-111.75 -212.66)"/><path class="cls-3" d="M368.15,292.36H277.86a5.31,5.31,0,0,1-5.31-5.31V282h95.6a7.78,7.78,0,0,0,7.78-7.78v-43a7.78,7.78,0,0,0-7.78-7.78h-95.6v-5.07a5.31,5.31,0,0,1,5.31-5.31h90.29a18.16,18.16,0,0,1,18.15,18.16v43A18.16,18.16,0,0,1,368.15,292.36Z" transform="translate(-111.75 -212.66)"/><path class="cls-2" d="M771.47,292.36h-85.1a18.16,18.16,0,0,1-18.16-18.16v-43a18.16,18.16,0,0,1,18.16-18.16h85.1a5.31,5.31,0,0,1,5.31,5.31v5.07H686.37a7.78,7.78,0,0,0-7.79,7.78v43a7.78,7.78,0,0,0,7.79,7.78h90.41v5.07a5.31,5.31,0,0,1-5.31,5.31" transform="translate(-111.75 -212.66)"/><path class="cls-3" d="M771.47,292.36h-85.1a18.16,18.16,0,0,1-18.16-18.16v-43a18.16,18.16,0,0,1,18.16-18.16h85.1a5.31,5.31,0,0,1,5.31,5.31v5.07H686.37a7.78,7.78,0,0,0-7.79,7.78v43a7.78,7.78,0,0,0,7.79,7.78h90.41v5.07A5.31,5.31,0,0,1,771.47,292.36Z" transform="translate(-111.75 -212.66)"/><path class="cls-2" d="M500,292.36H422.59a18.16,18.16,0,0,1-18.16-18.16V218.37a5.3,5.3,0,0,1,5.31-5.3h5.07V274.2a7.78,7.78,0,0,0,7.78,7.78H500a7.78,7.78,0,0,0,7.79-7.78V213.07h5.06a5.3,5.3,0,0,1,5.31,5.3V274.2A18.16,18.16,0,0,1,500,292.36" transform="translate(-111.75 -212.66)"/><path class="cls-3" d="M500,292.36H422.59a18.16,18.16,0,0,1-18.16-18.16V218.37a5.3,5.3,0,0,1,5.31-5.3h5.07V274.2a7.78,7.78,0,0,0,7.78,7.78H500a7.78,7.78,0,0,0,7.79-7.78V213.07h5.06a5.3,5.3,0,0,1,5.31,5.3V274.2A18.16,18.16,0,0,1,500,292.36Z" transform="translate(-111.75 -212.66)"/><path class="cls-2" d="M717.67,257.9H674.19v-5.07a5.31,5.31,0,0,1,5.31-5.31H723v5.07a5.3,5.3,0,0,1-5.3,5.31" transform="translate(-111.75 -212.66)"/><path class="cls-3" d="M717.67,257.9H674.19v-5.07a5.31,5.31,0,0,1,5.31-5.31H723v5.07A5.3,5.3,0,0,1,717.67,257.9Z" transform="translate(-111.75 -212.66)"/><path class="cls-2" d="M833.63,213.06H800.22a5.31,5.31,0,0,0-5.31,5.31v5.07h38.72a7.78,7.78,0,0,1,7.78,7.78v61.16h5.07a5.31,5.31,0,0,0,5.31-5.31V231.22a18.07,18.07,0,0,0-1.75-7.78H893a5.31,5.31,0,0,0,5.31-5.31v-5.07Z" transform="translate(-111.75 -212.66)"/><path class="cls-3" d="M833.63,213.06H800.22a5.31,5.31,0,0,0-5.31,5.31v5.07h38.72a7.78,7.78,0,0,1,7.78,7.78v61.16h5.07a5.31,5.31,0,0,0,5.31-5.31V231.22a18.07,18.07,0,0,0-1.75-7.78H893a5.31,5.31,0,0,0,5.31-5.31v-5.07Z" transform="translate(-111.75 -212.66)"/><path class="cls-2" d="M632,213.06c-8,0-13.52,6.52-18.89,12.83-5.63,6.62-11.46,13.46-19.82,13.46s-14.2-6.84-19.83-13.46c-5.37-6.31-10.92-12.83-18.89-12.83a18.18,18.18,0,0,0-18.16,18.16v55.85a5.31,5.31,0,0,0,5.31,5.31h5.07V231.22a7.69,7.69,0,0,1,7.78-7.78c3.18,0,7,4.46,11,9.17,6.49,7.63,14.57,17.11,27.72,17.12h0c13.15,0,21.23-9.49,27.72-17.12,4-4.71,7.82-9.17,11-9.17a7.7,7.7,0,0,1,7.79,7.78v61.16h5.06a5.31,5.31,0,0,0,5.31-5.31V231.22A18.18,18.18,0,0,0,632,213.06" transform="translate(-111.75 -212.66)"/><path class="cls-3" d="M632,213.06c-8,0-13.52,6.52-18.89,12.83-5.63,6.62-11.46,13.46-19.82,13.46s-14.2-6.84-19.83-13.46c-5.37-6.31-10.92-12.83-18.89-12.83a18.18,18.18,0,0,0-18.16,18.16v55.85a5.31,5.31,0,0,0,5.31,5.31h5.07V231.22a7.69,7.69,0,0,1,7.78-7.78c3.18,0,7,4.46,11,9.17,6.49,7.63,14.57,17.11,27.72,17.12h0c13.15,0,21.23-9.49,27.72-17.12,4-4.71,7.82-9.17,11-9.17a7.7,7.7,0,0,1,7.79,7.78v61.16h5.06a5.31,5.31,0,0,0,5.31-5.31V231.22A18.18,18.18,0,0,0,632,213.06Z" transform="translate(-111.75 -212.66)"/><path class="cls-2" d="M151,292.38H146a5.31,5.31,0,0,1-5.31-5.31V218.4a5.37,5.37,0,0,1,1.72-4,5.19,5.19,0,0,1,6.34-.46L244,277.48V213.07h5.07a5.3,5.3,0,0,1,5.31,5.3V287a5.34,5.34,0,0,1-1.73,4,5.19,5.19,0,0,1-6.34.46L151,227.94Z" transform="translate(-111.75 -212.66)"/><path class="cls-3" d="M151,292.38H146a5.31,5.31,0,0,1-5.31-5.31V218.4a5.37,5.37,0,0,1,1.72-4,5.19,5.19,0,0,1,6.34-.46L244,277.48V213.07h5.07a5.3,5.3,0,0,1,5.31,5.3V287a5.34,5.34,0,0,1-1.73,4,5.19,5.19,0,0,1-6.34.46L151,227.94Z" transform="translate(-111.75 -212.66)"/><path class="cls-2" d="M117.22,292.38h-5.07V218.25a5.18,5.18,0,0,1,5.19-5.18h5.19v74a5.31,5.31,0,0,1-5.31,5.31" transform="translate(-111.75 -212.66)"/><path class="cls-3" d="M117.22,292.38h-5.07V218.25a5.18,5.18,0,0,1,5.19-5.18h5.19v74A5.31,5.31,0,0,1,117.22,292.38Z" transform="translate(-111.75 -212.66)"/><path class="cls-2" d="M282.91,287V218.37a5.3,5.3,0,0,0-5.31-5.3h-5.06v73.71Z" transform="translate(-111.75 -212.66)"/><path class="cls-3" d="M282.91,287V218.37a5.3,5.3,0,0,0-5.31-5.3h-5.06v73.71Z" transform="translate(-111.75 -212.66)"/></svg>