<svg xmlns="http://www.w3.org/2000/svg" xmlns:xlink="http://www.w3.org/1999/xlink" width="100" height="100" viewBox="0 0 100 100"><g><g transform="translate(50 50) scale(0.69 0.69) rotate(0) translate(-50 -50)" style="fill:#FFFFFF"><svg fill="#FFFFFF" xmlns="http://www.w3.org/2000/svg" xmlns:xlink="http://www.w3.org/1999/xlink" version="1.1" x="0px" y="0px" viewBox="0 0 35.7 20.6" style="enable-background:new 0 0 35.7 20.6;" xml:space="preserve"><title>Asset 33</title><g><g><path d="M34.2,3H1.5C0.7,3,0,2.3,0,1.5S0.7,0,1.5,0h32.7c0.8,0,1.5,0.7,1.5,1.5S35.1,3,34.2,3z"></path><path d="M34.2,11.8H1.5c-0.8,0-1.5-0.7-1.5-1.5s0.7-1.5,1.5-1.5h32.7c0.8,0,1.5,0.7,1.5,1.5S35.1,11.8,34.2,11.8z"></path><path d="M34.2,20.6H1.5c-0.8,0-1.5-0.7-1.5-1.5s0.7-1.5,1.5-1.5h32.7c0.8,0,1.5,0.7,1.5,1.5S35.1,20.6,34.2,20.6z"></path></g></g></svg></g></g></svg>