<svg xmlns="http://www.w3.org/2000/svg" xmlns:xlink="http://www.w3.org/1999/xlink" width="100" height="100" viewBox="0 0 100 100"><g><g transform="translate(50 50) scale(0.69 0.69) rotate(0) translate(-50 -50)" style="fill:#FFFFFF"><svg fill="#FFFFFF" xmlns="http://www.w3.org/2000/svg" xmlns:xlink="http://www.w3.org/1999/xlink" version="1.1" x="0px" y="0px" viewBox="0 0 66 66" enable-background="new 0 0 66 66" xml:space="preserve"><g><path d="M2,22.2c0.5,0,1-0.4,1-1V2.9h18.3c0.5,0,1-0.4,1-1c0-0.5-0.4-1-1-1H2C1.4,1,1,1.4,1,2v19.3   C1,21.8,1.4,22.2,2,22.2z"></path><path d="M21.2,63.1H2.9V44.8c0-0.5-0.4-1-1-1c-0.5,0-1,0.4-1,1V64c0,0.5,0.4,1,1,1h19.3c0.5,0,1-0.4,1-1   C22.2,63.5,21.8,63.1,21.2,63.1z"></path><path d="M64,43.8c-0.5,0-1,0.4-1,1v18.3H44.8c-0.5,0-1,0.4-1,1c0,0.5,0.4,1,1,1H64c0.5,0,1-0.4,1-1V44.8   C65,44.2,64.6,43.8,64,43.8z"></path><path d="M64,1H44.8c-0.5,0-1,0.4-1,1c0,0.5,0.4,1,1,1h18.3v18.3c0,0.5,0.4,1,1,1c0.5,0,1-0.4,1-1V2   C65,1.4,64.6,1,64,1z"></path><path d="M49.1,30.1h2c-1.2-7.7-7.4-13.9-15.1-15.1v2C42.6,18.1,47.9,23.4,49.1,30.1z"></path><path d="M16.9,35.9h-2c1.2,7.7,7.4,13.9,15.1,15.1v-2C23.4,47.9,18.1,42.6,16.9,35.9z"></path><path d="M15,30.1h2c1.2-6.7,6.5-11.9,13.1-13.1v-2C22.4,16.2,16.2,22.4,15,30.1z"></path><path d="M51,35.9h-2c-1.2,6.7-6.5,11.9-13.1,13.1v2C43.6,49.8,49.8,43.6,51,35.9z"></path><path d="M25.2,33c0,4.3,3.5,7.8,7.8,7.8c4.3,0,7.8-3.5,7.8-7.8s-3.5-7.8-7.8-7.8C28.7,25.2,25.2,28.7,25.2,33z"></path><path d="M10.7,32c-0.5,0-1,0.4-1,1c0,0.5,0.4,1,1,1h9.6c0.5,0,1-0.4,1-1c0-0.5-0.4-1-1-1H10.7z"></path><path d="M33,21.3c0.5,0,1-0.4,1-1v-9.6c0-0.5-0.4-1-1-1c-0.5,0-1,0.4-1,1v9.6C32,20.8,32.5,21.3,33,21.3z"></path><path d="M33,44.7c-0.5,0-1,0.4-1,1v9.6c0,0.5,0.4,1,1,1c0.5,0,1-0.4,1-1v-9.6C34,45.2,33.5,44.7,33,44.7z"></path><path d="M44.7,33c0,0.5,0.4,1,1,1h9.6c0.5,0,1-0.4,1-1c0-0.5-0.4-1-1-1h-9.6C45.1,32,44.7,32.5,44.7,33z"></path></g></svg></g></g></svg>